# AST/ASF file generated using VICON BodyLanguage
# -----------------------------------------------
:version 1.10
:name VICON
:units
  mass 1.0
  length 0.45
  angle deg
:documentation
   .ast/.asf automatically generated from VICON data using
   VICON BodyBuilder and BodyLanguage model FoxedUp or BRILLIANT.MOD
:root
   order TX TY TZ RX RY RZ
   axis XYZ
   position 0 0 0  
   orientation 0 0 0 
:bonedata
  begin
     id 1 
     name lhipjoint
     direction 0.707368 -0.647095 0.284426 
     length 2.60678 
     axis 0 0 0  XYZ
  end
  begin
     id 2 
     name lfemur
     direction 0.34202 -0.939693 0  
     length 6.63812  
     axis 0 0 20  XYZ
    dof rx ry rz
    limits (-160.0 20.0)
           (-70.0 70.0)
           (-60.0 70.0)
  end
  begin
     id 3 
     name ltibia
     direction 0.34202 -0.939693 0   
     length 7.51178   
     axis 0 0 20   XYZ
    dof rx
    limits (-10.0 170.0)
  end
  begin
     id 4 
     name lfoot
     direction 0.121251 -0.333133 0.935051   
     length 1.83716   
     axis -90 7.62852e-016 20   XYZ
    dof rx rz
    limits (-45.0 90.0)
           (-70.0 20.0)
  end
  begin
     id 5 
     name ltoes
     direction 1.53611e-011 -4.21962e-011 1   
     length 0.916133   
     axis -90 7.62852e-016 20   XYZ
    dof rx
    limits (-90.0 20.0)
  end
  begin
     id 6 
     name rhipjoint
     direction -0.692419 -0.660507 0.290321   
     length 2.55385  
     axis 0 0 0  XYZ 
  end
  begin
     id 7 
     name rfemur
     direction -0.34202 -0.939693 0   
     length 7.29079   
     axis 0 0 -20   XYZ
    dof rx ry rz
    limits (-160.0 20.0)
           (-70.0 70.0)
           (-70.0 60.0)
  end
  begin
     id 8 
     name rtibia
     direction -0.34202 -0.939693 0   
     length 7.47143   
     axis 0 0 -20   XYZ
    dof rx
    limits (-10.0 170.0)
 end
 begin
     id 9 
     name rfoot
     direction -0.119907 -0.329441 0.936532   
     length 1.79439  
     axis -90 -7.62852e-016 -20   XYZ
    dof rx rz
    limits (-45.0 90.0)
           (-20.0 70.0)
  end
  begin
     id 10 
     name rtoes
     direction -1.53571e-011 -4.21961e-011 1   
     length 0.896039   
     axis -90 -7.62852e-016 -20   XYZ
    dof rx
    limits (-90.0 20.0)
  end
  begin
     id 11 
     name lowerback
     direction 0.0367721 0.992912 -0.113016   
     length 1.73542   
     axis 0 0 0   XYZ
    dof rx ry rz
    limits (-20.0 45.0)
           (-30.0 30.0)
           (-30.0 30.0)
  end
  begin
     id 12 
     name upperback
     direction -0.000314626 0.990678 0.136227   
     length 1.7514   
     axis 0 0 0   XYZ
    dof rx ry rz
    limits (-20.0 45.0)
           (-30.0 30.0)
           (-30.0 30.0)
  end
  begin
     id 13 
     name thorax
     direction -0.0226159 0.981151 0.191917   
     length 1.71471   
     axis 0 0 0   XYZ
    dof rx ry rz
    limits (-20.0 45.0)
           (-30.0 30.0)
           (-30.0 30.0)
  end
  begin
     id 14 
     name lowerneck
     direction 0.0219333 0.998071 0.0580739   
     length 1.65882   
     axis 0 0 0   XYZ
    dof rx ry rz
    limits (-20.0 45.0)
           (-30.0 30.0)
           (-30.0 30.0)
  end
  begin
     id 15 
     name upperneck
     direction 0.0384529 0.980058 -0.194957   
     length 1.6612   
     axis 0 0 0   XYZ
    dof rx ry rz
    limits (-20.0 45.0)
           (-30.0 30.0)
           (-30.0 30.0)
  end
  begin
     id 16
     name head
     direction 0.00592123 0.997421 -0.0715234  
     length 1.68077  
     axis 0 0 0   XYZ
    dof rx ry rz
    limits (-20.0 45.0)
           (-30.0 30.0)
           (-30.0 30.0)
  end
  begin
     id 17 
     name lclavicle
     direction 0.904803 0.417826 0.0821728  
     length 3.42227  
     axis 0 0 0   XYZ
    dof ry rz
    limits (-20.0 10.0)
           (0.0 20.0)
  end
  begin
     id 18 
     name lhumerus
     direction 1 -4.48965e-011 -2.68786e-027   
     length 5.11878   
     axis -180 -30 -90   XYZ
    dof rx ry rz
    limits (-60.0 90.0)
           (-90.0 90.0)
           (-90.0 90.0)
  end
  begin
     id 19
     name lradius
     direction 1 -4.48965e-011 2.61168e-028   
     length 3.59971   
     axis -180 -30 -90   XYZ
    dof rx
    limits (-10.0 170.0)
  end
  begin
     id 20
     name lwrist
     direction 1 -4.48965e-011 1.58672e-027   
     length 1.79985   
     axis -1.65735e-015 90 90   XYZ
    dof ry
    limits (-180.0 0.0)
 end
  begin
     id 21 
     name lhand
     direction 1 -4.48942e-011 3.17344e-027   
     length 0.62877   
     axis -2.02492e-015 90 90   XYZ
    dof rx rz
    limits (-90.0 90.0)
           (-45.0 45.0)
  end
  begin
     id 22 
     name lfingers
     direction 1 -4.49011e-011 6.34687e-027   
     length 0.506931   
     axis -4.04985e-015 90 90   XYZ
    dof rx
    limits (0.0 90.0)
  end
  begin
     id 23
     name lthumb
     direction 0.707107 -6.34982e-011 0.707107   
     length 0.727854   
     axis -90 45 2.85299e-015   XYZ
    dof rx rz
    limits (-45.0 45.0)
           (-45.0 45.0)
  end
  begin
     id 24 
     name rclavicle
     direction -0.945647 0.32488 0.0143075   
     length 3.52737  
     axis 0 0 0   XYZ 
    dof ry rz
    limits (-10.0 20.0)
           (-20.0 0.0)
  end
  begin
     id 25 
     name rhumerus
     direction -1 -4.48962e-011 1.92182e-027  
     length 5.4902   
     axis -180 30 90   XYZ
    dof rx ry rz
    limits (-90.0 60.0)
           (-90.0 90.0)
           (-90.0 90.0)
  end
  begin
     id 26 
     name rradius
     direction -1 -4.48967e-011 -5.97193e-028   
     length 3.20659   
     axis -180 30 90   XYZ
    dof rx
    limits (-10.0 170.0)
  end
  begin
     id 27 
     name rwrist
     direction -1 -4.48964e-011 1.58672e-027   
     length 1.6033   
     axis -1.65735e-015 -90 -90   XYZ
    dof ry
    limits (-180.0 0.0)
  end
  begin
     id 28
     name rhand
     direction -1 -4.49006e-011 3.17344e-027   
     length 0.691885   
     axis -2.02492e-015 -90 -90   XYZ
    dof rx rz
    limits (-90.0 90.0)
           (-45.0 45.0)
  end
  begin
     id 29
     name rfingers
     direction -1 -4.48908e-011 6.34687e-027   
     length 0.557815   
     axis -4.04985e-015 -90 -90   XYZ
    dof rx
    limits (0.0 90.0)
  end
  begin
     id 30
     name rthumb
     direction -0.707107 -6.34999e-011 0.707107   
     length 0.800915   
     axis -90 -45 -2.85299e-015   XYZ
    dof rx rz
    limits (-45.0 45.0)
           (-45.0 45.0)
  end
:hierarchy
  begin
    root lhipjoint rhipjoint lowerback
    lhipjoint lfemur
    lfemur ltibia
    ltibia lfoot
    lfoot ltoes
    rhipjoint rfemur
    rfemur rtibia
    rtibia rfoot
    rfoot rtoes
    lowerback upperback
    upperback thorax
    thorax lowerneck lclavicle rclavicle
    lowerneck upperneck
    upperneck head
    lclavicle lhumerus
    lhumerus lradius
    lradius lwrist
    lwrist lhand lthumb
    lhand lfingers
    rclavicle rhumerus
    rhumerus rradius
    rradius rwrist
    rwrist rhand rthumb
    rhand rfingers
  end

#!OML:ASF I:\Actors\actors\Patient Classification 1\Patient 1\Session 1\Subject1.ASF
:FULLY-SPECIFIED
:DEGREES
68
root 0.636631 17.4329 9.17835 10.0456 -3.25804 -8.69209
lowerback -2.73965 0.739774 4.86129
upperback -9.09418 1.2269 2.30472
thorax -7.96964 0.351704 -0.336218
lowerneck -2.9065 -11.5595 -10.9535
upperneck 13.1482 -16.9937 13.7113
head 6.58765 -8.08033 4.74588
rclavicle -1.51076e-014 1.21259e-014
rhumerus -47.7294 -22.9856 -68.6451
rradius 25.3409
rwrist 41.837
rhand 8.72524 -30.2042
rfingers 7.12502
rthumb 33.9163 -57.0065
lclavicle -1.51076e-014 1.21259e-014
lhumerus -49.8442 25.1102 69.0765
lradius 24.247
lwrist -23.689
lhand -16.5652 -9.4542
lfingers 7.12502
lthumb 9.65483 20.3045
rfemur -4.87991 25.4669 24.7393
rtibia 2.23579
rfoot -11.183 -24.6558
rtoes 5.79407
lfemur 4.26058 -43.9039 -12.0494
ltibia -4.24575
lfoot -24.4148 53.5854
ltoes 15.592
69
root 0.636629 17.4328 9.17826 10.0514 -3.29775 -8.72229
lowerback -2.71126 0.756393 4.88509
upperback -9.0883 1.25191 2.31263
thorax -7.97872 0.362577 -0.342449
lowerneck -2.78613 -11.538 -10.9624
upperneck 13.0275 -16.9648 13.7612
head 6.53009 -8.07268 4.77528
rclavicle -6.90777e-015 7.95139e-015
rhumerus -47.7478 -22.9783 -68.6437
rradius 25.3637
rwrist 41.802
rhand 8.6766 -30.1541
rfingers 7.12502
rthumb 33.8701 -56.9666
lclavicle -6.90777e-015 7.95139e-015
lhumerus -49.8822 24.8225 69.3191
lradius 24.425
lwrist -23.2681
lhand -16.5201 -9.46348
lfingers 7.12502
lthumb 9.69843 20.2932
rfemur -4.89248 25.4582 24.7667
rtibia 2.23666
rfoot -11.1465 -24.6312
rtoes 5.7316
lfemur 4.28648 -43.919 -12.0266
ltibia -4.26152
lfoot -24.501 53.6193
ltoes 15.6737
70
root 0.636115 17.4325 9.17871 10.0672 -3.31244 -8.70251
lowerback -2.71312 0.753857 4.83966
upperback -9.08476 1.24744 2.31598
thorax -7.97426 0.36392 -0.313541
lowerneck -2.7044 -11.4941 -11.1231
upperneck 13.0348 -16.9259 13.9149
head 6.54098 -8.05644 4.85752
rclavicle -9.0447e-015 -9.14409e-015
rhumerus -47.768 -22.9371 -68.6444
rradius 25.3683
rwrist 41.7802
rhand 8.56918 -30.0715
rfingers 7.12502
rthumb 33.768 -56.9065
lclavicle -9.0447e-015 -9.14409e-015
lhumerus -49.9584 24.7445 69.3719
lradius 24.5203
lwrist -23.1588
lhand -16.5256 -9.52389
lfingers 7.12502
lthumb 9.69311 20.2331
rfemur -4.90753 25.4498 24.7342
rtibia 2.22052
rfoot -11.0977 -24.6249
rtoes 5.6904
lfemur 4.24601 -43.855 -12.0206
ltibia -4.24694
lfoot -24.3877 53.5899
ltoes 15.5291
71
root 0.635007 17.4326 9.17916 10.0774 -3.33169 -8.65892
lowerback -2.70661 0.746814 4.76116
upperback -9.07886 1.23659 2.31704
thorax -7.97244 0.364359 -0.268536
lowerneck -2.72607 -11.488 -11.1425
upperneck 13.0953 -16.9238 13.9241
head 6.56609 -8.05331 4.86166
rclavicle -4.47266e-016 -2.44505e-014
rhumerus -47.7625 -22.9006 -68.6352
rradius 25.3248
rwrist 41.7848
rhand 8.49752 -29.999
rfingers 7.12502
rthumb 33.6999 -56.8488
lclavicle -4.47266e-016 -2.44505e-014
lhumerus -50.0642 24.7985 69.3238
lradius 24.5683
lwrist -23.2412
lhand -16.5217 -9.53607
lfingers 7.12502
lthumb 9.69683 20.2207
rfemur -4.93334 25.4195 24.6741
rtibia 2.23314
rfoot -11.0824 -24.5765
rtoes 5.55121
lfemur 4.1985 -43.797 -12.0428
ltibia -4.21439
lfoot -24.3546 53.555
ltoes 15.4646
72
root 0.633888 17.4336 9.18021 10.0821 -3.36497 -8.63347
lowerback -2.69813 0.747561 4.71053
upperback -9.07395 1.2367 2.31479
thorax -7.97218 0.368015 -0.242938
lowerneck -2.86188 -11.5041 -11.042
upperneck 13.2655 -16.9298 13.7196
head 6.61692 -8.05261 4.77122
rclavicle -1.2424e-015 8.15017e-015
rhumerus -47.7618 -22.8779 -68.6386
rradius 25.2981
rwrist 41.7659
rhand 8.56178 -29.9966
rfingers 7.12502
rthumb 33.761 -56.8331
lclavicle -1.2424e-015 8.15017e-015
lhumerus -50.156 24.7605 69.3373
lradius 24.6363
lwrist -23.2148
lhand -16.5098 -9.50012
lfingers 7.12502
lthumb 9.70834 20.2561
rfemur -4.95374 25.4192 24.6367
rtibia 2.26525
rfoot -11.1265 -24.537
rtoes 5.43232
lfemur 4.20614 -43.8371 -12.0846
ltibia -4.20649
lfoot -24.265 53.6464
ltoes 15.2994
73
root 0.633486 17.4345 9.18139 10.1028 -3.36728 -8.61514
lowerback -2.72335 0.742146 4.67215
upperback -9.06941 1.22649 2.31256
thorax -7.95303 0.366034 -0.223342
lowerneck -2.98615 -11.5236 -10.8798
upperneck 13.4039 -16.9359 13.4812
head 6.6473 -8.05248 4.66204
rclavicle -1.49585e-014 5.74488e-014
rhumerus -47.768 -22.8892 -68.636
rradius 25.2884
rwrist 41.7656
rhand 8.66277 -30.0639
rfingers 7.12502
rthumb 33.8569 -56.8793
lclavicle -1.49585e-014 5.74488e-014
lhumerus -50.2161 24.6733 69.3909
lradius 24.7121
lwrist -23.0839
lhand -16.4809 -9.61379
lfingers 7.12502
lthumb 9.73624 20.1412
rfemur -4.97234 25.4587 24.6091
rtibia 2.26831
rfoot -11.1347 -24.5846
rtoes 5.41922
lfemur 4.19201 -43.9048 -12.1039
ltibia -4.20812
lfoot -24.2019 53.7398
ltoes 15.2044
74
root 0.63411 17.4346 9.1822 10.126 -3.3412 -8.64232
lowerback -2.74991 0.733075 4.69897
upperback -9.06395 1.21362 2.3268
thorax -7.93225 0.358777 -0.222463
lowerneck -3.01678 -11.5194 -10.7588
upperneck 13.4492 -16.9142 13.3204
head 6.63899 -8.04319 4.5938
rclavicle 2.73329e-015 2.3059e-014
rhumerus -47.7825 -22.9407 -68.5937
rradius 25.2704
rwrist 41.8563
rhand 8.70116 -30.1517
rfingers 7.12502
rthumb 33.8934 -56.959
lclavicle 2.73329e-015 2.3059e-014
lhumerus -50.2637 24.5512 69.497
lradius 24.8016
lwrist -22.8741
lhand -16.4613 -9.66796
lfingers 7.12502
lthumb 9.75512 20.0861
rfemur -4.98788 25.4611 24.6354
rtibia 2.24986
rfoot -11.1051 -24.6179
rtoes 5.56265
lfemur 4.14668 -43.8794 -12.0419
ltibia -4.20353
lfoot -24.2234 53.6977
ltoes 15.2484
75
root 0.63497 17.4345 9.1829 10.1417 -3.32894 -8.66857
lowerback -2.75823 0.730105 4.73599
upperback -9.06516 1.21055 2.3383
thorax -7.92896 0.35512 -0.230683
lowerneck -3.06017 -11.509 -10.6816
upperneck 13.5407 -16.8937 13.2048
head 6.65563 -8.03222 4.54489
rclavicle -9.98893e-015 -2.96189e-014
rhumerus -47.8043 -22.9612 -68.5616
rradius 25.2525
rwrist 41.9114
rhand 8.71192 -30.1952
rfingers 7.12502
rthumb 33.9036 -57.0003
lclavicle -9.98893e-015 -2.96189e-014
lhumerus -50.3273 24.5576 69.4798
lradius 24.8068
lwrist -22.8258
lhand -16.4565 -9.60305
lfingers 7.12502
lthumb 9.75976 20.1508
rfemur -4.99008 25.5085 24.656
rtibia 2.22657
rfoot -11.147 -24.6461
rtoes 5.92891
lfemur 4.11352 -43.818 -11.9843
ltibia -4.20614
lfoot -24.2129 53.6318
ltoes 15.289
76
root 0.634971 17.4347 9.18355 10.1531 -3.32618 -8.68308
lowerback -2.75997 0.725623 4.75077
upperback -9.06862 1.20499 2.34084
thorax -7.93196 0.3513 -0.235938
lowerneck -3.09337 -11.4749 -10.6604
upperneck 13.6341 -16.8616 13.2287
head 6.68716 -8.01061 4.55041
rclavicle -1.41634e-014 -2.127e-014
rhumerus -47.8043 -22.9784 -68.5493
rradius 25.2087
rwrist 41.9118
rhand 8.70154 -30.1995
rfingers 7.12502
rthumb 33.8938 -57.0068
lclavicle -1.41634e-014 -2.127e-014
lhumerus -50.403 24.7364 69.2832
lradius 24.7138
lwrist -22.9881
lhand -16.4487 -9.5892
lfingers 7.12502
lthumb 9.76731 20.1643
rfemur -4.98816 25.5767 24.6683
rtibia 2.21754
rfoot -11.186 -24.6884
rtoes 5.96071
lfemur 4.1101 -43.8359 -11.9551
ltibia -4.23182
lfoot -24.344 53.6377
ltoes 15.4949
77
root 0.634269 17.4347 9.18393 10.1681 -3.33008 -8.70219
lowerback -2.76646 0.735725 4.77725
upperback -9.06559 1.21837 2.33898
thorax -7.92414 0.356125 -0.253074
lowerneck -3.12648 -11.4499 -10.6315
upperneck 13.7473 -16.8406 13.2264
head 6.72338 -7.99503 4.54497
rclavicle -1.963e-014 5.96354e-015
rhumerus -47.8146 -23.052 -68.5104
rradius 25.1772
rwrist 41.9537
rhand 8.64668 -30.1975
rfingers 7.12502
rthumb 33.8417 -57.0163
lclavicle -1.963e-014 5.96354e-015
lhumerus -50.4291 24.8265 69.1774
lradius 24.6232
lwrist -23.0657
lhand -16.4953 -9.61573
lfingers 7.12502
lthumb 9.72232 20.1399
rfemur -5.0191 25.5508 24.6837
rtibia 2.23563
rfoot -11.1643 -24.6674
rtoes 5.7554
lfemur 4.0896 -43.8427 -11.9098
ltibia -4.24277
lfoot -24.4267 53.6504
ltoes 15.5749
78
root 0.634043 17.4342 9.1845 10.1894 -3.33119 -8.68374
lowerback -2.79079 0.754372 4.77994
upperback -9.05262 1.24068 2.33065
thorax -7.89455 0.367363 -0.26407
lowerneck -3.17543 -11.4621 -10.6083
upperneck 13.8568 -16.8542 13.1388
head 6.75854 -8.00064 4.50801
rclavicle -7.35503e-015 3.37934e-015
rhumerus -47.8202 -23.1354 -68.45
rradius 25.1677
rwrist 42.0137
rhand 8.59907 -30.1612
rfingers 7.12502
rthumb 33.7964 -56.9899
lclavicle -7.35503e-015 3.37934e-015
lhumerus -50.4184 24.8896 69.1421
lradius 24.5479
lwrist -23.153
lhand -16.5595 -9.56788
lfingers 7.12502
lthumb 9.66034 20.1906
rfemur -5.0653 25.496 24.6448
rtibia 2.25224
rfoot -11.1867 -24.6184
rtoes 5.86691
lfemur 4.02305 -43.7639 -11.8862
ltibia -4.21517
lfoot -24.2892 53.5893
ltoes 15.3999
79
root 0.634529 17.4339 9.1861 10.1949 -3.32064 -8.66851
lowerback -2.81363 0.756691 4.78063
upperback -9.03683 1.24147 2.33068
thorax -7.8638 0.36847 -0.264314
lowerneck -3.19871 -11.4735 -10.6175
upperneck 13.9065 -16.8673 13.1019
head 6.77754 -8.00721 4.49413
rclavicle -1.68967e-015 -1.78906e-015
rhumerus -47.8157 -23.1898 -68.4014
rradius 25.1677
rwrist 42.054
rhand 8.6101 -30.1392
rfingers 7.12502
rthumb 33.8069 -56.9656
lclavicle -1.68967e-015 -1.78906e-015
lhumerus -50.4617 24.9937 69.0605
lradius 24.527
lwrist -23.2959
lhand -16.5258 -9.4301
lfingers 7.12502
lthumb 9.69289 20.3269
rfemur -5.065 25.4848 24.6215
rtibia 2.24673
rfoot -11.2209 -24.6048
rtoes 5.95017
lfemur 4.00884 -43.7603 -11.8989
ltibia -4.19568
lfoot -24.3618 53.5394
ltoes 15.4608
80
root 0.63481 17.4343 9.18749 10.1812 -3.30234 -8.67945
lowerback -2.7984 0.760375 4.8153
upperback -9.03549 1.24755 2.32057
thorax -7.87046 0.36847 -0.294609
lowerneck -3.19579 -11.4809 -10.6462
upperneck 13.9358 -16.8839 13.1269
head 6.79325 -8.01455 4.50407
rclavicle 8.54774e-015 -7.35503e-015
rhumerus -47.8664 -23.2693 -68.3506
rradius 25.178
rwrist 42.1168
rhand 8.62214 -30.1546
rfingers 7.12502
rthumb 33.8183 -56.9785
lclavicle 8.54774e-015 -7.35503e-015
lhumerus -50.585 25.1267 68.8149
lradius 24.4253
lwrist -23.5076
lhand -16.6258 -10.0467
lfingers 7.12502
lthumb 9.59637 19.7148
rfemur -5.03695 25.4598 24.6459
rtibia 2.24783
rfoot -11.2044 -24.5958
rtoes 5.76386
lfemur 4.04915 -43.8136 -11.912
ltibia -4.20467
lfoot -24.5655 53.5311
ltoes 15.7152
